<svg width="54" height="54" viewBox="0 0 54 54" fill="none" xmlns="http://www.w3.org/2000/svg">
<rect x="0.5" y="0.5" width="53" height="53" rx="5.5" fill="white"/>
<rect x="0.5" y="0.5" width="53" height="53" rx="5.5" stroke="#F1F1F3"/>
<path fill-rule="evenodd" clip-rule="evenodd" d="M19.5 27C19.5 26.3787 20.0037 25.875 20.625 25.875H30.5819L27.3453 22.9359C26.8974 22.5053 26.8834 21.7931 27.3141 21.3453C27.7447 20.8974 28.4569 20.8834 28.9047 21.3141L34.1547 26.1891C34.3753 26.4012 34.5 26.694 34.5 27C34.5 27.306 34.3753 27.5988 34.1547 27.8109L28.9047 32.6859C28.4569 33.1166 27.7447 33.1026 27.3141 32.6547C26.8834 32.2069 26.8974 31.4947 27.3453 31.0641L30.5819 28.125H20.625C20.0037 28.125 19.5 27.6213 19.5 27Z" fill="#262626"/>
</svg>
