<svg width="54" height="54" viewBox="0 0 54 54" fill="none" xmlns="http://www.w3.org/2000/svg">
<rect x="0.5" y="0.5" width="53" height="53" rx="5.5" fill="white"/>
<rect x="0.5" y="0.5" width="53" height="53" rx="5.5" stroke="#F1F1F3"/>
<path fill-rule="evenodd" clip-rule="evenodd" d="M34.5 27C34.5 27.6213 33.9963 28.125 33.375 28.125H23.4181L26.6547 31.0641C27.1026 31.4947 27.1166 32.2069 26.6859 32.6547C26.2553 33.1026 25.5431 33.1166 25.0953 32.6859L19.8453 27.8109C19.6247 27.5988 19.5 27.306 19.5 27C19.5 26.694 19.6247 26.4012 19.8453 26.1891L25.0953 21.3141C25.5431 20.8834 26.2553 20.8974 26.6859 21.3453C27.1166 21.7931 27.1026 22.5053 26.6547 22.9359L23.4181 25.875L33.375 25.875C33.9963 25.875 34.5 26.3787 34.5 27Z" fill="#262626"/>
</svg>
